<svg version="1.1"
	 xmlns="http://www.w3.org/2000/svg" xmlns:xlink="http://www.w3.org/1999/xlink" xmlns:a="http://ns.adobe.com/AdobeSVGViewerExtensions/3.0/"
	 x="0px" y="0px" width="103px" height="103.7px" viewBox="0 0 103 103.7"
	 style="overflow:scroll;enable-background:new 0 0 103 103.7;" xml:space="preserve">
<style type="text/css">
	.st0{fill:#b7b3b2;}
</style>
<defs>
</defs>
<path class="st0" d="M87.3,64.8c0.3-1.5,1.1-2.9,1.6-4.9c0.4-2,0.7-3.5,0.5-5.1l12.3-6.3c1.2-0.8,1.4-1.8,1.1-2.9l-6.3-19.6
	c-0.4-0.6-1.3-1.3-2.9-1.1l-13.5,2.3c-2.1-2.5-4.7-4.7-7.4-6.8l0.8-13.4C74.3,5.8,73,4.5,72,4.3L52.1,0c-1-0.2-2.7,0.5-2.9,1.5
	l-4.8,13c-3.2,0.4-6.1,1.8-9.5,3.2l-10.9-7.5c-1.4-0.8-2.5-0.5-3.7,0.3L6.5,25.8c-0.6,0.4-0.4,2,0.4,3.2l8.8,10.2
	c-0.3,1.5-1.1,2.9-1.5,4.9c-0.4,2-0.7,3.5-0.6,5.1L1.2,55.4c-1.2,0.8-1.4,1.8-1.1,2.9l6.3,19.6c0.4,0.6,1.3,1.3,2.9,1.1l13.5-2.3
	c2.1,2.5,4.7,4.7,7.4,6.8l-0.8,13.4c-0.2,1,0.6,2.2,2.1,2.5l20,4.2c1,0.2,2.7-0.5,2.9-1.5l4.7-12.6c3.3-0.9,6.6-1.7,9.5-3.2L80.1,94
	c0.9,0.7,2.5,0.5,3.2-0.4L97,78.3c0.7-0.9,1-2.4,0.1-3.1L87.3,64.8z M47.8,69.5C38.3,67.5,32,57.8,34,48.3
	c2-9.5,11.7-15.8,21.2-13.8c9.5,2,15.7,11.7,13.7,21.2C66.9,65.2,57.3,71.5,47.8,69.5L47.8,69.5z"/>
</svg>
